<svg xmlns="http://www.w3.org/2000/svg" xmlns:xlink="http://www.w3.org/1999/xlink" width="279.99" height="316" viewBox="0 0 279.99 316">
    <defs>
        <linearGradient id="l5gbsx8z4a" x1=".003" y1=".502" x2=".997" y2=".502" gradientUnits="objectBoundingBox">
            <stop offset="0" stop-color="#ff66a9"/>
            <stop offset="1" stop-color="#f53689"/>
        </linearGradient>
        <linearGradient id="l44o4ttwte" x1="0" y1=".512" x2=".996" y2=".512" xlink:href="#l5gbsx8z4a"/>
        <linearGradient id="ylp631cwog" x1=".232" y1=".091" x2=".789" y2=".925" gradientUnits="objectBoundingBox">
            <stop offset="0" stop-color="#83a6ff"/>
            <stop offset="1" stop-color="#5a78ff"/>
        </linearGradient>
        <linearGradient id="wgfo8e3q7h" x1=".868" y1=".874" x2=".214" y2=".185" gradientUnits="objectBoundingBox">
            <stop offset=".011" stop-color="#c2d1ff"/>
            <stop offset="1" stop-color="#fff"/>
        </linearGradient>
        <filter id="i43qeip7bb" x="12.05" y="9.519" width="267.94" height="294.126" filterUnits="userSpaceOnUse">
            <feOffset dy="11"/>
            <feGaussianBlur stdDeviation="11" result="blur"/>
            <feFlood flood-color="#657a93" flood-opacity=".18"/>
            <feComposite operator="in" in2="blur"/>
            <feComposite in="SourceGraphic"/>
        </filter>
        <filter id="7g2vabbu6c" x="0" y="0" width="270.727" height="316" filterUnits="userSpaceOnUse">
            <feOffset dy="11"/>
            <feGaussianBlur stdDeviation="11" result="blur-2"/>
            <feFlood flood-color="#657a93" flood-opacity=".18"/>
            <feComposite operator="in" in2="blur-2"/>
            <feComposite in="SourceGraphic"/>
        </filter>
        <filter id="iqnezsptdd" x="28.855" y="17.39" width="228.128" height="275.271" filterUnits="userSpaceOnUse">
            <feOffset dy="11"/>
            <feGaussianBlur stdDeviation="11" result="blur-3"/>
            <feFlood flood-color="#657a93" flood-opacity=".18"/>
            <feComposite operator="in" in2="blur-3"/>
            <feComposite in="SourceGraphic"/>
        </filter>
        <filter id="ffj4j9ab7f" x="152.248" y="168.716" width="112.176" height="112.685" filterUnits="userSpaceOnUse">
            <feOffset dy="5"/>
            <feGaussianBlur stdDeviation="4" result="blur-4"/>
            <feFlood flood-color="#1d4bff" flood-opacity=".22"/>
            <feComposite operator="in" in2="blur-4"/>
            <feComposite in="SourceGraphic"/>
        </filter>
    </defs>
    <g data-name="46">
        <path data-name="Path" d="M7.758 11.632a5.974 5.974 0 0 0 3.8-7.516A5.927 5.927 0 1 0 .292 7.791a5.936 5.936 0 0 0 7.466 3.841z" transform="translate(19.438 45.607)" style="fill:#eaeef9"/>
        <path data-name="Path" d="M5.275 7.9A4.048 4.048 0 0 0 2.785.2 4.065 4.065 0 0 0 .2 5.313 4.02 4.02 0 0 0 5.275 7.9z" transform="translate(34.856 29.881)" style="fill:#eaeef9"/>
        <path data-name="Path" d="M15.084 15.745a9.1 9.1 0 0 0 .574-12.8 8.984 8.984 0 0 0-12.727-.582 9.119 9.119 0 0 0-.572 12.818 8.98 8.98 0 0 0 12.725.564z" transform="translate(218.789 42.496)" style="fill:#eaeef9"/>
        <path data-name="Path" d="M6.351 6.635a3.828 3.828 0 0 0 .24-5.386A3.768 3.768 0 0 0 1.234 1a3.828 3.828 0 0 0-.242 5.384 3.771 3.771 0 0 0 5.359.251z" transform="translate(256.292 35.093)" style="fill:#eaeef9"/>
        <path data-name="Path" d="M6.352 6.635a3.828 3.828 0 0 0 .24-5.386A3.768 3.768 0 0 0 1.235 1a3.826 3.826 0 0 0-.242 5.384 3.771 3.771 0 0 0 5.359.251z" transform="translate(31.257 246.347)" style="fill:#eaeef9"/>
        <path data-name="Path" d="M117.545 236.452c64.918 0 117.543-52.932 117.543-118.237C235.088 52.931 182.463 0 117.545 0S0 52.931 0 118.216c0 65.305 52.627 118.236 117.545 118.236z" transform="translate(15.438 29.139)" style="fill:#eaeef9"/>
        <g style="filter:url(#i43qeip7bb)">
            <path data-name="Path" d="M15.622 100.855.254 35.2a9.064 9.064 0 0 1 6.62-10.935L108.3 0l57.45 39.242 35.937 144.389a9.064 9.064 0 0 1-6.62 10.935L55.1 227.872a9.026 9.026 0 0 1-10.876-6.665L14.439 95.856" transform="translate(45.048 31.52)" style="fill:#fff"/>
        </g>
        <g style="filter:url(#7g2vabbu6c)">
            <path data-name="Path" d="m204.727 105.854-54.143 138.459a8.953 8.953 0 0 1-11.82 5L5.651 194.584a9.029 9.029 0 0 1-4.964-11.9l71.639-177a8.955 8.955 0 0 1 11.822-5l96.7 39.729z" transform="translate(32.998 22)" style="fill:#fff"/>
        </g>
        <path data-name="Path" d="M16.121 0 .714 38.142a10.965 10.965 0 0 0 5.925 13.842L40.3 65.574" transform="translate(197.43 62.386)" style="fill:#fff"/>
        <g style="filter:url(#iqnezsptdd)">
            <path data-name="Path" d="M162.128 200.233a9.017 9.017 0 0 1-9.008 9.038H9.006A9.016 9.016 0 0 1 0 200.233V9.038A9.016 9.016 0 0 1 9.006 0h104.531l46.931 51.6.948 86.549z" transform="translate(61.848 39.39)" style="fill:#fff"/>
        </g>
        <path data-name="Path" d="M89.124 5.24H2.608A2.635 2.635 0 0 1 0 2.63 2.639 2.639 0 0 1 2.608 0h86.516a2.639 2.639 0 0 1 2.608 2.63 2.807 2.807 0 0 1-2.608 2.61z" transform="translate(108.284 188.743)" style="fill:#e3eaf2"/>
        <path data-name="Path" d="M17.779 5.24H2.608A2.635 2.635 0 0 1 0 2.63 2.639 2.639 0 0 1 2.608 0h15.171a2.639 2.639 0 0 1 2.608 2.63 2.635 2.635 0 0 1-2.608 2.61z" transform="translate(82.601 188.743)" style="fill:url(#l5gbsx8z4a)"/>
        <path data-name="Path" d="M41.242 5.24H2.608A2.638 2.638 0 0 1 0 2.61 2.633 2.633 0 0 1 2.608 0h38.634a2.635 2.635 0 0 1 2.608 2.61c-.238 1.67-1.186 2.63-2.608 2.63z" transform="translate(155.878 165.202)" style="fill:#e3eaf2"/>
        <path data-name="Path" d="M59.021 5.24H2.608A2.639 2.639 0 0 1 0 2.61 2.635 2.635 0 0 1 2.608 0h56.413a2.633 2.633 0 0 1 2.605 2.61 2.5 2.5 0 0 1-2.605 2.63z" transform="translate(83.277 165.202)" style="fill:#e3eaf2"/>
        <path data-name="Path" d="M17.541 5.261H2.608A2.639 2.639 0 0 1 0 2.63 2.653 2.653 0 0 1 2.608 0h14.933a2.653 2.653 0 0 1 2.608 2.63 2.639 2.639 0 0 1-2.608 2.631z" transform="translate(180.273 141.87)" style="fill:url(#l44o4ttwte)"/>
        <path data-name="Path" d="M85.092 5.261H2.605A2.637 2.637 0 0 1 0 2.63 2.651 2.651 0 0 1 2.605 0h82.487A2.653 2.653 0 0 1 87.7 2.63a2.639 2.639 0 0 1-2.608 2.631z" transform="translate(83.956 141.87)" style="fill:#e3eaf2"/>
        <path data-name="Path" d="M7.823 5.261H2.608A2.638 2.638 0 0 1 0 2.63 2.651 2.651 0 0 1 2.608 0h5.215a2.651 2.651 0 0 1 2.605 2.63 3.014 3.014 0 0 1-2.605 2.631z" transform="translate(124.235 214.429)" style="fill:#e3eaf2"/>
        <path data-name="Path" d="M33.42 5.261H2.605A2.637 2.637 0 0 1 0 2.63 2.651 2.651 0 0 1 2.605 0h30.579a2.653 2.653 0 0 1 2.608 2.63 2.316 2.316 0 0 1-2.372 2.631z" transform="translate(84.01 214.429)" style="fill:#e3eaf2"/>
        <path data-name="Path" d="M55.7 5.261H2.608A2.653 2.653 0 0 1 0 2.63 2.639 2.639 0 0 1 2.608 0H55.7a2.639 2.639 0 0 1 2.608 2.63A2.653 2.653 0 0 1 55.7 5.261z" transform="translate(142.849 118.558)" style="fill:#e3eaf2"/>
        <path data-name="Path" d="M43.852 5.261H2.608A2.653 2.653 0 0 1 0 2.63 2.639 2.639 0 0 1 2.608 0h41.006a2.639 2.639 0 0 1 2.608 2.63 2.458 2.458 0 0 1-2.37 2.631z" transform="translate(84.71 118.558)" style="fill:#e3eaf2"/>
        <path data-name="Path" d="M72.531 6.66H3.317A3.239 3.239 0 0 1 0 3.34 3.244 3.244 0 0 1 3.317 0h69.214a3.244 3.244 0 0 1 3.317 3.34 3.576 3.576 0 0 1-3.317 3.32z" transform="translate(84.917 64.421)" style="fill:#1c3754"/>
        <path data-name="Path" d="M29.629 6.681H3.317A3.256 3.256 0 0 1 0 3.34 3.256 3.256 0 0 1 3.317 0h26.547a3.256 3.256 0 0 1 3.319 3.34 3.813 3.813 0 0 1-3.554 3.341z" transform="translate(84.958 80.975)" style="fill:#1c3754"/>
        <path data-name="Path" d="M0 0v41a10.751 10.751 0 0 0 10.666 10.48h36.265" transform="translate(175.259 39.39)" style="fill:#eaeef9"/>
        <g style="filter:url(#ffj4j9ab7f)">
            <path data-name="Path" d="M88.176 44.343a39.966 39.966 0 0 1-3.081 15.971A44.846 44.846 0 0 1 57.6 86.535a42.507 42.507 0 0 1-13.509 2.15 44.343 44.343 0 1 1 44.085-44.342z" transform="translate(164.248 175.72)" style="fill:url(#ylp631cwog)"/>
        </g>
        <path data-name="Path" d="M21.289 0A17.969 17.969 0 0 0 4.124 13.647c-2.6 0-3.028 0-3.473.668a1.958 1.958 0 0 0 0 2.916l4.564 4.7a1.83 1.83 0 0 0 2.827 0l4.564-4.7a1.958 1.958 0 0 0 0-2.916 1.88 1.88 0 0 0-1.313-.668H9.779a12.6 12.6 0 0 1 16.3-7.614c6.5 2.471 9.773 10.085 7.369 16.786A12.716 12.716 0 0 1 21.734 31.1a11.934 11.934 0 0 1-9.128-4.03 2.462 2.462 0 0 0-3.7 0 2.623 2.623 0 0 0 0 3.807 17.459 17.459 0 0 0 25.2.668 18.776 18.776 0 0 0 .646-25.958C30.639 2 26.075 0 21.289 0z" transform="translate(186.789 201.762)" style="fill:url(#wgfo8e3q7h)"/>
    </g>
</svg>
