<svg data-name="Iconly/Light/Video" xmlns="http://www.w3.org/2000/svg" width="24" height="24" viewBox="0 0 24 24">
    <path data-name="Stroke 1" d="M14 10.538A3.375 3.375 0 0 1 10.695 14c-.14.006-6.979-.008-6.979-.008a3.405 3.405 0 0 1-3.7-3.043C0 10.81 0 3.472 0 3.472A3.378 3.378 0 0 1 3.3 0l6.974.01a3.421 3.421 0 0 1 3.716 3.064c.01.132.01 7.464.01 7.464z" style="fill:none;stroke:#818894;stroke-linecap:round;stroke-linejoin:round;stroke-miterlimit:10;stroke-width:1.5px" transform="translate(2.3 5)"/>
    <path data-name="Stroke 3" d="M0 2.98 3.293.285a1.248 1.248 0 0 1 2.039.967L5.32 8.6a1.248 1.248 0 0 1-2.04.962L0 6.868" transform="translate(16.3 7)" style="fill:none;stroke:#818894;stroke-linecap:round;stroke-linejoin:round;stroke-miterlimit:10;stroke-width:1.5px"/>
</svg>
