<svg xmlns="http://www.w3.org/2000/svg" width="85" height="85" viewBox="0 0 85 85">
    <g transform="translate(-431 -1309)">
        <circle data-name="Ellipse 372" cx="42.5" cy="42.5" r="42.5" transform="translate(431 1309)" style="opacity:.3;fill:#43d477"/>
        <g data-name="food_forum">
            <g data-name="Group 1931">
                <g data-name="Group 1930">
                    <path data-name="Path 2551" d="M51.921 7.8a8.328 8.328 0 0 0-5.914 1.253 8.774 8.774 0 0 1 2.455-3.113 10.736 10.736 0 0 1 2.587-1.6 1.008 1.008 0 0 0-.727-1.88 12.708 12.708 0 0 0-4.628 3.372 6.857 6.857 0 0 0-.317-1.1A9.572 9.572 0 0 0 40.844.093a1.008 1.008 0 0 0-1.351.518A9.571 9.571 0 0 0 39.23 7.1a6.763 6.763 0 0 0 .364.789 8.364 8.364 0 0 0-3.145-.089 8.77 8.77 0 0 0-7.135 10.035 37.947 37.947 0 0 0 2.257 8.687 13.389 13.389 0 0 0 4.165 5.853 7.24 7.24 0 0 0 4.352 1.434 8.425 8.425 0 0 0 1.342-.11 6.055 6.055 0 0 0 2.755-1.151A6.055 6.055 0 0 0 46.94 33.7a7.352 7.352 0 0 0 5.694-1.324 13.388 13.388 0 0 0 4.166-5.857 37.949 37.949 0 0 0 2.257-8.687A8.77 8.77 0 0 0 51.921 7.8zM41 2.522a6.7 6.7 0 0 1 2.5 2.936 6.739 6.739 0 0 1 .1 3.851 6.7 6.7 0 0 1-2.492-2.936A6.738 6.738 0 0 1 41 2.522zm16.063 15.006c-1.025 6.714-2.967 11.284-5.616 13.214a5.333 5.333 0 0 1-4.186.963 3.89 3.89 0 0 1-2.335-1.2 1.008 1.008 0 0 0-1.481 0 3.89 3.89 0 0 1-2.335 1.2 5.335 5.335 0 0 1-4.186-.963c-2.65-1.931-4.592-6.5-5.616-13.214a6.749 6.749 0 0 1 5.463-7.74 6.439 6.439 0 0 1 1.029-.083 6.366 6.366 0 0 1 3.883 1.329 4.135 4.135 0 0 0 5.01 0A6.352 6.352 0 0 1 51.6 9.788a6.749 6.749 0 0 1 5.463 7.74z" transform="translate(429.789 1335)" style="fill:#43d477"/>
                </g>
            </g>
        </g>
    </g>
</svg>
