<svg xmlns="http://www.w3.org/2000/svg" width="85" height="85" viewBox="0 0 85 85">
    <g transform="translate(-431 -1309)">
        <circle data-name="Ellipse 372" cx="42.5" cy="42.5" r="42.5" transform="translate(431 1309)" style="opacity:.3;fill:#ffab00"/>
        <path data-name="Path 2554" d="M181.987 96.929a2.6 2.6 0 0 0-2.094-.591l-10.425 1.646a2.576 2.576 0 0 0-2.188 2.554v12.4h-2.712a4.653 4.653 0 1 0 4.671 4.653v-11.84l11.694-1.847v6.878h-2.712a4.653 4.653 0 1 0 4.671 4.653V98.892a2.579 2.579 0 0 0-.905-1.963zm-14.707 20.665a2.712 2.712 0 1 1-2.712-2.693h2.712zm13.653-2.156a2.712 2.712 0 1 1-2.712-2.693h2.712zm-11.694-11.667v-3.232a.626.626 0 0 1 .534-.619l10.427-1.646a.632.632 0 0 1 .516.145.616.616 0 0 1 .219.474v3.032z" transform="translate(307.546 1244.775)" style="fill:#ffab00"/>
        <path data-name="Path 2555" d="M13.19 20.575a.465.465 0 0 1 .165.357v5.447a.98.98 0 0 0 1.959 0v-5.447a2.437 2.437 0 0 0-2.821-2.4l-3.761.594a2.423 2.423 0 0 0-2.057 2.4v11.119H4.317a4.3 4.3 0 1 0 4.317 4.3V21.526a.473.473 0 0 1 .4-.466l3.761-.594a.478.478 0 0 1 .39.11zm-6.515 16.37A2.358 2.358 0 1 1 4.317 34.6h2.358z" style="fill:#ffab00" transform="translate(457 1317.5)"/>
    </g>
</svg>
