<svg xmlns="http://www.w3.org/2000/svg" width="85" height="85" viewBox="0 0 85 85">
    <g transform="translate(-431 -1309)">
        <circle data-name="Ellipse 372" cx="42.5" cy="42.5" r="42.5" transform="translate(431 1309)" style="fill:#00aeef;opacity:.3"/>
        <g data-name="Group 1932">
            <path data-name="Path 2552" d="M226.4 5.027a10.053 10.053 0 0 0-17.413 0 .923.923 0 0 0 .035.98l4.784 7.061v16.521a1.913 1.913 0 0 0 1.911 1.911h3.954a1.913 1.913 0 0 0 1.911-1.911V13.068l4.784-7.061a.922.922 0 0 0 .035-.98zm-6.664 24.562a.069.069 0 0 1-.066.066h-3.954a.069.069 0 0 1-.066-.066V13.707h4.085zm.433-17.727h-.7l.584-1.751a.923.923 0 0 0-1.751-.584l-.607 1.822-.607-1.822a.923.923 0 1 0-1.751.584l.584 1.751h-.7l-4.331-6.393a8.206 8.206 0 0 1 13.614 0z" transform="translate(261.997 1336)" style="fill:#00b1ff"/>
            <path data-name="Path 2553" d="M25.886 25.356h-.066v-9.95a.923.923 0 0 0-.923-.923h-.066V6.509A1.534 1.534 0 0 0 23.309 4.9a1.772 1.772 0 0 0-.66.132l-3.107 1.241a2.5 2.5 0 0 0-1.5 2.212v6h-.066a.923.923 0 0 0-.923.923v9.95h-.063a.923.923 0 0 0-.923.923v7.908a1.913 1.913 0 0 0 1.911 1.911H24.9a1.913 1.913 0 0 0 1.911-1.911v-7.911a.923.923 0 0 0-.923-.923zm-6-16.87a.683.683 0 0 1 .338-.5l2.759-1.1v7.6h-3.1zm-.986 7.842h5.074v9.028H18.9zm6.062 17.858a.069.069 0 0 1-.066.066h-6.918a.069.069 0 0 1-.066-.066V27.2h7.051z" transform="translate(442.933 1331.402)" style="fill:#00b1ff"/>
        </g>
    </g>
</svg>
