<svg xmlns="http://www.w3.org/2000/svg" width="85" height="85" viewBox="0 0 85 85">
    <g transform="translate(-431 -1309)">
        <circle data-name="Ellipse 372" cx="42.5" cy="42.5" r="42.5" transform="translate(431 1309)" style="opacity:.3;fill:#7e50ff"/>
        <g data-name="Group 1930">
            <path data-name="Path 2551" d="M31.632 1.073a.936.936 0 0 0-.753-.753 19.771 19.771 0 0 0-17.208 5.17A13.4 13.4 0 0 0 3.573 9.4l-1.765 1.768a.936.936 0 0 0 .243 1.5l4.638 2.319a36.1 36.1 0 0 0-1.565 3.575.936.936 0 0 0 .165.936A13.419 13.419 0 0 0 0 30.171v.844a.936.936 0 0 0 .936.936h.844a13.446 13.446 0 0 0 6.476-1.667 13.491 13.491 0 0 0 4.2-3.622.934.934 0 0 0 .936.165 36.1 36.1 0 0 0 3.575-1.565l2.316 4.638a.936.936 0 0 0 1.5.243l1.765-1.765a13.4 13.4 0 0 0 3.913-10.1 19.771 19.771 0 0 0 5.171-17.205zM23.025 2.4a17.883 17.883 0 0 1 6.87-.346 17.883 17.883 0 0 1-.347 6.873l-.009.015a7.755 7.755 0 0 1-6.531-6.531l.018-.01zM4.05 11.574l.847-.847a11.523 11.523 0 0 1 6.937-3.315 35.4 35.4 0 0 0-4.258 5.924zm3.3 17.07a11.57 11.57 0 0 1-5.479 1.434 11.556 11.556 0 0 1 4.75-9.242l1.584 1.584-1.984 1.986a.936.936 0 1 0 1.323 1.324l1.986-1.986 1.584 1.584a11.613 11.613 0 0 1-3.763 3.316zm13.872-1.59-.847.847-1.763-3.526a35.4 35.4 0 0 0 5.924-4.257 11.523 11.523 0 0 1-3.314 6.936zm3.567-9.744a33.633 33.633 0 0 1-11.5 7.549l-2.438-2.438 4.633-4.633a.936.936 0 0 0-1.324-1.324L9.53 21.1l-2.438-2.441a33.631 33.631 0 0 1 7.549-11.5l.046-.046A17.885 17.885 0 0 1 21.2 2.959a9.622 9.622 0 0 0 7.79 7.79 17.883 17.883 0 0 1-4.154 6.513z" transform="translate(458.001 1336)" style="fill:#7e50ff"/>
            <path data-name="Path 2552" d="M254.407 131.646a4.056 4.056 0 1 0 2.868 1.188 4.029 4.029 0 0 0-2.868-1.188zm1.544 5.6a2.183 2.183 0 1 1 0-3.089 2.187 2.187 0 0 1 .001 3.09z" transform="translate(223.273 1212.569)" style="fill:#7e50ff"/>
        </g>
    </g>
</svg>
