<svg data-name="Iconly/Bulk/2 User" xmlns="http://www.w3.org/2000/svg" width="16" height="16" viewBox="0 0 16 16">
    <g data-name="2 User">
        <path data-name="Fill 1" d="M4.9 0C2.257 0 0 .408 0 2.04s2.243 2.055 4.9 2.055 4.9-.408 4.9-2.04S7.556 0 4.9 0" transform="translate(1.333 9.905)" style="fill:#818894"/>
        <path data-name="Fill 3" d="M3.242 6.35a3.2 3.2 0 0 0 3.242-3.175A3.2 3.2 0 0 0 3.242 0 3.2 3.2 0 0 0 0 3.175 3.2 3.2 0 0 0 3.242 6.35" transform="translate(2.991 2)" style="opacity:.4;fill:#818894"/>
        <path data-name="Fill 5" d="M.843 2.7a4.245 4.245 0 0 1-.758 2.433.118.118 0 0 0 .082.183 2.645 2.645 0 0 0 .373.034 2.7 2.7 0 0 0 2.715-1.966A2.7 2.7 0 0 0 .617 0a2.773 2.773 0 0 0-.546.054.1.1 0 0 0-.063.037.074.074 0 0 0 .012.083A4.276 4.276 0 0 1 .843 2.7" transform="translate(9.939 2.53)" style="opacity:.4;fill:#818894"/>
        <path data-name="Fill 7" d="M4.165 1.193A2.127 2.127 0 0 0 2.524.215 12.236 12.236 0 0 0 .025 0 .028.028 0 0 0 0 .02a.036.036 0 0 0 .023.037 3.337 3.337 0 0 1 2.045 3.285.138.138 0 0 0 .156.155c.444-.062 1.587-.3 1.941-1.051a1.4 1.4 0 0 0 0-1.252" transform="translate(10.354 8.92)" style="fill:#818894"/>
    </g>
</svg>
