<svg data-name="Iconly/Bulk/Buy" xmlns="http://www.w3.org/2000/svg" width="16" height="16" viewBox="0 0 16 16">
    <path data-name="Combined Shape" d="M7.5 1.013A1.01 1.01 0 1 1 8.513 2.02 1.013 1.013 0 0 1 7.5 1.013zm-7.5 0A1.01 1.01 0 1 1 1.013 2.02 1.013 1.013 0 0 1 0 1.013z" transform="translate(3.94 12.712)" style="opacity:.4;fill:#818894"/>
    <path data-name="Fill 7" d="M11 9.992H3.727a1.7 1.7 0 0 1-1.693-1.559L1.42 1.166.414.992A.5.5 0 0 1 .093.787.488.488 0 0 1 .007.419.508.508 0 0 1 .512 0a.529.529 0 0 1 .075.005l1.59.24A.506.506 0 0 1 2.59.7l.127 1.493a.408.408 0 0 0 .406.374h9a1.137 1.137 0 0 1 .94.446 1.446 1.446 0 0 1 .253 1.146l-.634 4.373A1.711 1.711 0 0 1 11 9.992zm-2.913-4.96a.5.5 0 0 0-.5.5.5.5 0 0 0 .5.5h1.847a.5.5 0 0 0 .5-.5.5.5 0 0 0-.5-.5z" transform="translate(1.333 1.666)" style="fill:#818894"/>
</svg>
