<svg xmlns="http://www.w3.org/2000/svg" width="54.855" height="51.552" viewBox="0 0 54.855 51.552">
    <defs>
        <linearGradient id="dywvmz259a" x1=".115" y1="1" x2=".799" y2=".088" gradientUnits="objectBoundingBox">
            <stop offset="0" stop-color="#fff"/>
            <stop offset="1" stop-color="#d6d6d6" stop-opacity=".38"/>
        </linearGradient>
    </defs>
    <path data-name="Path 2716" d="M58.657 46.23a1.692 1.692 0 0 0 2.326-.623l1.131-1.959c4.986-8.636 3.873-12.789-4.763-17.774l-19.588-11.31c-8.636-4.986-12.789-3.873-17.774 4.763l-.572.99a1.692 1.692 0 0 0 .623 2.326 3.952 3.952 0 1 1-3.952 6.845 1.692 1.692 0 0 0-2.326.623l-.572.99C8.2 39.737 9.317 43.89 17.953 48.875l19.588 11.31c8.636 4.986 12.788 3.873 17.774-4.763a1.692 1.692 0 0 0-.623-2.326 3.964 3.964 0 0 1 3.964-6.866zM35.133 27.144a2.432 2.432 0 1 1-3.322.89 2.439 2.439 0 0 1 3.322-.89zm4.125 22.04a2.432 2.432 0 1 1 3.3-.9 2.4 2.4 0 0 1-3.299.901zM48.937 36.8l-22.359 5.99a1.82 1.82 0 0 1-2.233-1.29 1.835 1.835 0 0 1 1.289-2.233l22.359-5.991a1.823 1.823 0 1 1 .944 3.522z" style="fill:url(#dywvmz259a)" transform="translate(-10.224 -11.598)"/>
</svg>
