<svg xmlns="http://www.w3.org/2000/svg" xmlns:xlink="http://www.w3.org/1999/xlink" width="197" height="560.614" viewBox="0 0 197 560.614">
    <defs>
        <linearGradient id="wiwtzad7ua" x1="-.004" y1=".499" x2=".994" y2=".499" gradientUnits="objectBoundingBox">
            <stop offset="0" stop-color="#ff66a9"/>
            <stop offset="1" stop-color="#f53689"/>
        </linearGradient>
        <linearGradient id="aqx1y9nz4b" x1="-.005" y1=".504" x2=".998" y2=".504" xlink:href="#wiwtzad7ua"/>
    </defs>
    <g data-name="Group 2004" transform="translate(-1149 -414.386)">
        <g data-name="Rectangle 893" transform="translate(1149 427)" style="stroke:#707070;stroke-dasharray:5;opacity:.04;fill:#f1f1f1">
            <rect width="197" height="548" rx="35" style="stroke:none"/>
            <rect x=".5" y=".5" width="196" height="547" rx="34.5" style="fill:none"/>
        </g>
        <rect data-name="Rectangle 892" width="177" height="528" rx="30" transform="translate(1159 437)" style="opacity:.31;fill:#f1f1f1"/>
        <g data-name="Group 1331">
            <g data-name="41">
                <path d="M0 10.822C6.932 8.12 16.822 2.533 20.889.109a.727.727 0 0 1 1.016.93A24.475 24.475 0 0 1 19.6 5.513a9.166 9.166 0 0 1 3.507 1.677.923.923 0 0 1-.184 1.582 36.786 36.786 0 0 1-8.223 2.614L2.311 12.4z" transform="translate(1259.638 425.868)" style="fill:#db1a74"/>
                <path data-name="Path" d="M23.471 10.822C16.539 8.12 6.649 2.533 2.582.109a.727.727 0 0 0-1.017.93 24.464 24.464 0 0 0 2.311 4.474A9.169 9.169 0 0 0 .364 7.19a.923.923 0 0 0 .185 1.582 36.784 36.784 0 0 0 8.226 2.615L21.161 12.4z" transform="translate(1211.892 425.868)" style="fill:#db1a74"/>
                <path data-name="Path" d="M25.233 12.632a9.878 9.878 0 0 1-2.033 4.474c-2.126 2.7-5.268 4.474-8.226 5.96a37.045 37.045 0 0 1-6.932 2.8c-1.572.372-4.342-.466-6.193-1.21C.739 24.187 0 23.909 0 23.909v-2.241c.462-3.632.739-7.447 2.218-10.808a18.274 18.274 0 0 1 6.193-7.82c2.68-1.955 5.915-3.823 9.428-2.7a11.56 11.56 0 0 1 7.672 10.06c-.093.746-.186 1.485-.278 2.232z" transform="translate(1249.858 414.574)" style="fill:url(#wiwtzad7ua)"/>
                <path data-name="Path" d="M23.385 2.329A9.878 9.878 0 0 1 21.351 6.8c-2.126 2.7-5.268 4.474-8.226 5.96a37.045 37.045 0 0 1-6.932 2.8c-1.571.374-4.344-.469-6.193-1.208l9.15-3.076a38.6 38.6 0 0 0 8.318-3.544 13.238 13.238 0 0 0 5.824-6.707c.092-.278.184-.652.277-1.025a18.291 18.291 0 0 1-.184 2.329z" transform="translate(1251.706 424.877)" style="fill:#e9368b"/>
                <path data-name="Path" d="M1.834 15.3a1.451 1.451 0 0 1-1.756-1.86c1.571-5.682 3.6-8.106 5.546-9.878A17.146 17.146 0 0 1 13.017.027 1.5 1.5 0 0 1 14.774 1.7c-.37 3.632-1.849 7.176-4.529 9.219A22.44 22.44 0 0 1 1.834 15.3z" transform="translate(1252.738 418.238)" style="fill:#db1a74"/>
                <path data-name="Path" d="M25.336 21.768V24a3.222 3.222 0 0 1-.462.183c-1.386.66-5.546 2.336-7.579 1.772a31.92 31.92 0 0 1-6.932-2.789C7.4 21.673 4.17 19.9 2.136 17.2A9.854 9.854 0 0 1 .1 12.732a10.829 10.829 0 0 1 .924-6.151 15.866 15.866 0 0 1 1.2-2.146A11.431 11.431 0 0 1 7.682.334c3.42-1.113 6.655.747 9.428 2.7a17.752 17.752 0 0 1 6.19 7.83 53.969 53.969 0 0 1 2.036 10.904z" transform="translate(1220.27 414.386)" style="fill:url(#aqx1y9nz4b)"/>
                <path data-name="Path" d="M24.874 17.6c-1.386.652-5.546 2.329-7.579 1.772a31.552 31.552 0 0 1-6.932-2.8c-2.963-1.48-6.194-3.252-8.227-5.954A9.882 9.882 0 0 1 .1 6.143 10.813 10.813 0 0 1 1.027 0a13.4 13.4 0 0 0-.185 2.416 12.485 12.485 0 0 0 3.7 8.2 16.45 16.45 0 0 0 8.041 4.005c2.958.652 6.008.842 9.058 1.208 1.292.097 2.859.571 3.233 1.771z" transform="translate(1220.178 421.062)" style="fill:#e9368b"/>
                <path data-name="Path" d="M6.562 13.232A6.616 6.616 0 1 0 0 6.612a6.592 6.592 0 0 0 6.562 6.62z" transform="translate(1241.262 431.382)" style="fill:#db1a74"/>
                <path data-name="Path" d="M12.947 15.3a1.451 1.451 0 0 0 1.756-1.86C13.132 7.76 11.1 5.336 9.158 3.564A17.146 17.146 0 0 0 1.763.027 1.5 1.5 0 0 0 .007 1.7c.37 3.632 1.849 7.176 4.529 9.219a23.124 23.124 0 0 0 8.411 4.381z" transform="translate(1227.76 418.238)" style="fill:#db1a74"/>
            </g>
        </g>
    </g>
</svg>
