<svg width="48" height="48" viewBox="0 0 48 48" fill="none" xmlns="http://www.w3.org/2000/svg">
<circle cx="24" cy="24" r="18" fill="#FEB702"/>
<circle cx="24" cy="24" r="23.5" stroke="url(#paint0_linear_2396_1890)" stroke-dasharray="2 2"/>
<g opacity="0.3">
<path d="M23.463 13.3228L16.5345 16.3476C13.0702 17.86 12.6128 19.1617 14.2253 22.8551L18.7304 33.1745C19.7947 35.6124 21.3848 35.6056 22.2468 33.1561L22.2519 33.1429C22.6553 32.0175 23.8289 31.5815 24.8597 32.1681L26.3255 33.0013C27.496 33.6578 28.6965 33.1337 29.0108 31.8289L29.3963 30.1876C29.672 29.0197 30.7896 28.4554 31.8932 28.9338C34.2847 29.963 35.3615 28.8054 34.2973 26.3676L29.7961 16.0573C28.1928 12.36 26.9272 11.8104 23.463 13.3228ZM19.2498 20.6179C19.7539 20.3978 20.3464 20.6302 20.5664 21.1342C20.7865 21.6383 20.5633 22.2267 20.05 22.4508C19.5368 22.6749 18.9535 22.4385 18.7335 21.9344C18.5134 21.4304 18.7366 20.8419 19.2498 20.6179ZM27.5494 24.6325C27.0362 24.8566 26.4529 24.6202 26.2328 24.1162C26.0128 23.6121 26.2451 23.0197 26.7492 22.7996C27.2532 22.5795 27.8457 22.8119 28.0658 23.316C28.2858 23.82 28.0626 24.4085 27.5494 24.6325ZM25.8095 18.3979L22.3344 27.2584C22.2569 27.4559 22.1108 27.5961 21.9367 27.6721C21.7626 27.7481 21.5604 27.76 21.3629 27.6825C20.9811 27.5328 20.7891 27.0929 20.9388 26.7111L24.414 17.8505C24.5637 17.4687 25.0036 17.2767 25.3854 17.4264C25.7672 17.5762 25.9593 18.0161 25.8095 18.3979Z" fill="url(#paint1_linear_2396_1890)"/>
</g>
<path d="M27.78 14H20.22C16.44 14 15.5 15.01 15.5 19.04V30.3C15.5 32.96 16.96 33.59 18.73 31.69L18.74 31.68C19.56 30.81 20.81 30.88 21.52 31.83L22.53 33.18C23.34 34.25 24.65 34.25 25.46 33.18L26.47 31.83C27.19 30.87 28.44 30.8 29.26 31.68C31.04 33.58 32.49 32.95 32.49 30.29V19.04C32.5 15.01 31.56 14 27.78 14ZM21 19C21.55 19 22 19.45 22 20C22 20.55 21.56 21 21 21C20.44 21 20 20.55 20 20C20 19.45 20.44 19 21 19ZM27 26C26.44 26 26 25.55 26 25C26 24.45 26.45 24 27 24C27.55 24 28 24.45 28 25C28 25.55 27.56 26 27 26ZM27.9 19.59L21.17 26.32C21.02 26.47 20.83 26.54 20.64 26.54C20.45 26.54 20.26 26.47 20.11 26.32C19.82 26.03 19.82 25.55 20.11 25.26L26.84 18.53C27.13 18.24 27.61 18.24 27.9 18.53C28.19 18.82 28.19 19.3 27.9 19.59Z" fill="url(#paint2_linear_2396_1890)"/>
<defs>
<linearGradient id="paint0_linear_2396_1890" x1="24" y1="0" x2="24" y2="48" gradientUnits="userSpaceOnUse">
<stop stop-color="#E9E9E9"/>
<stop offset="1" stop-color="#E8E8E8" stop-opacity="0"/>
</linearGradient>
<linearGradient id="paint1_linear_2396_1890" x1="19.9942" y1="14.8372" x2="27.9893" y2="33.1506" gradientUnits="userSpaceOnUse">
<stop stop-color="white"/>
<stop offset="1" stop-color="white" stop-opacity="0"/>
</linearGradient>
<linearGradient id="paint2_linear_2396_1890" x1="23.995" y1="14" x2="23.995" y2="33.9825" gradientUnits="userSpaceOnUse">
<stop stop-color="white"/>
<stop offset="1" stop-color="white" stop-opacity="0.38"/>
</linearGradient>
</defs>
</svg>
